<svg id="a" height="20" width="20" xmlns="http://www.w3.org/2000/svg" viewBox="0 0 20 20"><path d="M7.76119,10.84577v1.39303h1.59204v-.59702c0-.199,0-.39801,.0995-.59702-.29851,0-.49751-.0995-.69652-.199,0,0-.99503,0-.99503,0Z" fill="#f0f6fc99"/><rect x="7.76119" y="14.42786" width="1.59204" height="1.39303" fill="#f0f6fc99"/><path d="M5.97015,5.47264v1.29353h4.97512v-1.29353h-1.69154V1.39304h5.87065V3.68159h-1.79105v1.29353h1.79105v2.18905h-1.79105v.79602h1.09453c.79602,0,1.49254,.0995,2.08955,.199V0H.59701V15.8209H5.57214v-1.39303H1.99005v-3.9801h2.18905v1.79105h1.39304v-3.18408H1.99005V1.39303H7.76119V5.47264h-1.79105Z" fill="#f0f6fc99"/><path d="M13.43284,17.81095c-.199,0-.29851,.19901-.29851,.29851v1.09453h-1.79105v-7.16418h3.38308c.99502,0,1.19403,.39801,1.19403,.99502s-.49751,.99502-1.49254,.99502h-.89552c-.199,0-.29851,.199-.29851,.29851,0,.199,.199,.29851,.29851,.29851h.89552c1.99005,0,2.18905-1.19403,2.18905-1.69154,0-1.09453-.59702-1.69154-1.89055-1.69154h-3.68159c-.199,0-.29851,.199-.29851,.29851v7.8607c0,.19901,.199,.29851,.29851,.29851h2.48756c.199,0,.29851-.19901,.29851-.29851v-1.39303c-.0995,0-.199-.19901-.39801-.19901Z" fill="#f0f6fc99"/><path d="M19.40299,17.41294c0-.0995-.0995-.19901-.0995-.19901-.0995-.0995-.19901-.0995-.29851-.0995h-.19901c-.29851,0-.39801-.0995-.59702-.19901-.0995-.0995-.39801-.0995-.49751,0s-.0995,.39801,0,.49751c.29851,.29851,.69652,.39801,1.09453,.39801h0l.0995,1.39303c-.19901,0-.49751,.0995-.99502,.0995-1.59204,0-2.08955-.79602-2.48756-1.69154-.199-.29851-.29851-.59702-.49751-.79602,1.29353-.0995,1.99005-.39801,2.08955-.49751,1.29353-.59702,1.99005-1.59204,1.99005-3.08458,0-1.29353-.39801-2.28856-1.19403-2.98507-.79602-.59702-1.89055-.89552-3.38308-.89552h-4.77612c-.199,0-.29851,.199-.29851,.29851,0,.199,.199,.29851,.29851,.29851h4.67662c2.68657,0,3.8806,.99502,3.8806,3.28358,0,1.19403-.49751,1.99005-1.59204,2.48756h0s-.89552,.39801-3.08458,.49751c-.199,0-.29851,.19901-.29851,.29851,0,.19901,.199,.29851,.29851,.29851,.59702,0,.79602,.39801,1.19403,1.09453,.49751,.89552,1.09453,2.08955,3.08458,2.08955,.99502,0,1.39303-.0995,1.39303-.19901,.0995,0,.19901-.19901,.19901-.29851v-2.08955Z" fill="#f0f6fc99"/></svg>