<?xml version="1.0" encoding="UTF-8"?>
<svg width="25px" height="28px" viewBox="0 0 25 28" version="1.1" xmlns="http://www.w3.org/2000/svg" xmlns:xlink="http://www.w3.org/1999/xlink">
    <title>Group 3</title>
    <defs>
        <polygon id="path-1" points="0 5.74174894e-05 23.7398352 5.74174894e-05 23.7398352 26.2058015 0 26.2058015"></polygon>
    </defs>
    <g id="Page-1" stroke="none" stroke-width="1" fill="none" fill-rule="evenodd">
        <g id="Search" transform="translate(-536.000000, -1191.000000)">
            <g id="Group-3" transform="translate(536.082924, 1191.727137)">
                <mask id="mask-2" fill="white">
                    <use xlink:href="#path-1"></use>
                </mask>
                <g id="Clip-2"></g>
                <path d="M7.76020337,25.1148692 L15.9800912,25.1148692 L15.9800912,21.9632232 L16.4664173,21.909825 C21.6569583,21.3385209 22.4946795,17.4559503 22.6261656,16.013623 L1.11412896,16.013623 C1.24504084,17.454802 2.08276201,21.3379468 7.27387723,21.909825 L7.76020337,21.9632232 L7.76020337,25.1148692 Z M17.0715976,26.2058015 L6.66927107,26.2058015 L6.66927107,22.9307079 C-0.114605309,21.8925997 -0.00206702962,15.5175359 0.000229669958,15.4515057 L0.016306567,14.9226907 L23.723988,14.9226907 L23.7394907,15.4515057 C23.7417874,15.5175359 23.8548998,21.8925997 17.0715976,22.9307079 L17.0715976,26.2058015 Z M20.7675614,13.223133 L20.7675614,1.77982734 C20.7675614,0.797988268 19.9924253,-0.000114834979 19.0450367,-0.000114834979 L4.69525778,-0.000114834979 C3.74786921,-0.000114834979 2.9727331,0.797988268 2.9727331,1.77982734 L2.9727331,13.223133 L4.12108289,13.223133 L4.12108289,1.77982734 C4.12108289,1.4353224 4.38520334,1.14823495 4.69525778,1.14823495 L19.0450367,1.14823495 C19.3550912,1.14823495 19.6192116,1.4353224 19.6192116,1.77982734 L19.6192116,13.223133 L20.7675614,13.223133 Z" id="Fill-1" stroke="#9192AA" stroke-width="0.3" fill="#9192AA" mask="url(#mask-2)"></path>
            </g>
        </g>
    </g>
</svg>