<svg width="74" height="21" viewBox="0 0 74 21" fill="none" xmlns="http://www.w3.org/2000/svg">
  <path
    d="M39.3966 11.9595H41.1422C41.0957 12.5773 40.9243 13.1253 40.6281 13.6035C40.3318 14.0775 39.9192 14.4499 39.3903 14.7207C38.8613 14.9915 38.2202 15.127 37.4669 15.127C36.8872 15.127 36.3645 15.0254 35.899 14.8223C35.4378 14.6149 35.0421 14.3208 34.712 13.9399C34.3862 13.5549 34.1365 13.0936 33.963 12.5562C33.7895 12.0145 33.7028 11.4072 33.7028 10.7344V10.0298C33.7028 9.35693 33.7916 8.74967 33.9694 8.20801C34.1471 7.66634 34.401 7.20508 34.7311 6.82422C35.0654 6.43913 35.4653 6.1429 35.9308 5.93555C36.4005 5.72819 36.9253 5.62451 37.505 5.62451C38.2583 5.62451 38.8951 5.76416 39.4156 6.04346C39.9362 6.31852 40.3403 6.69727 40.6281 7.17969C40.9158 7.66211 41.0893 8.21647 41.1486 8.84277H39.403C39.3691 8.45345 39.2845 8.12337 39.149 7.85254C39.0179 7.58171 38.819 7.37646 38.5524 7.23682C38.29 7.09294 37.9409 7.021 37.505 7.021C37.1665 7.021 36.8681 7.08447 36.61 7.21143C36.3561 7.33838 36.1445 7.52881 35.9752 7.78271C35.8059 8.03239 35.679 8.34554 35.5944 8.72217C35.5097 9.09456 35.4674 9.5262 35.4674 10.0171V10.7344C35.4674 11.2041 35.5055 11.6252 35.5817 11.9976C35.6578 12.37 35.7763 12.6852 35.9371 12.9434C36.0979 13.2015 36.3053 13.3983 36.5592 13.5337C36.8131 13.6691 37.1157 13.7368 37.4669 13.7368C37.8943 13.7368 38.2413 13.6691 38.5079 13.5337C38.7788 13.3983 38.984 13.1994 39.1237 12.937C39.2675 12.6746 39.3585 12.3488 39.3966 11.9595ZM42.069 11.6357V11.5024C42.069 10.9989 42.1409 10.5355 42.2848 10.1123C42.4287 9.6849 42.6381 9.31462 42.9132 9.00146C43.1883 8.68831 43.5247 8.44499 43.9225 8.27148C44.3203 8.09375 44.7731 8.00488 45.2809 8.00488C45.7972 8.00488 46.2542 8.09375 46.652 8.27148C47.054 8.44499 47.3925 8.68831 47.6676 9.00146C47.9427 9.31462 48.1521 9.6849 48.296 10.1123C48.4399 10.5355 48.5118 10.9989 48.5118 11.5024V11.6357C48.5118 12.1351 48.4399 12.5985 48.296 13.0259C48.1521 13.4491 47.9427 13.8193 47.6676 14.1367C47.3925 14.4499 47.0561 14.6932 46.6583 14.8667C46.2605 15.0402 45.8056 15.127 45.2936 15.127C44.7858 15.127 44.3309 15.0402 43.9288 14.8667C43.5268 14.6932 43.1883 14.4499 42.9132 14.1367C42.6381 13.8193 42.4287 13.4491 42.2848 13.0259C42.1409 12.5985 42.069 12.1351 42.069 11.6357ZM43.7448 11.5024V11.6357C43.7448 11.9362 43.7744 12.2176 43.8336 12.48C43.8929 12.7424 43.9838 12.973 44.1066 13.1719C44.2293 13.3708 44.388 13.5273 44.5826 13.6416C44.7815 13.7516 45.0185 13.8066 45.2936 13.8066C45.5644 13.8066 45.7972 13.7516 45.9918 13.6416C46.1865 13.5273 46.3452 13.3708 46.4679 13.1719C46.5948 12.973 46.6879 12.7424 46.7472 12.48C46.8064 12.2176 46.8361 11.9362 46.8361 11.6357V11.5024C46.8361 11.2062 46.8064 10.929 46.7472 10.6709C46.6879 10.4085 46.5948 10.1779 46.4679 9.979C46.3452 9.77588 46.1844 9.61719 45.9855 9.50293C45.7908 9.38444 45.5559 9.3252 45.2809 9.3252C45.0101 9.3252 44.7773 9.38444 44.5826 9.50293C44.388 9.61719 44.2293 9.77588 44.1066 9.979C43.9838 10.1779 43.8929 10.4085 43.8336 10.6709C43.7744 10.929 43.7448 11.2062 43.7448 11.5024ZM51.4064 9.45215V17.6406H49.7242V8.13184H51.2794L51.4064 9.45215ZM55.818 11.4961V11.6294C55.818 12.1287 55.7587 12.5921 55.6403 13.0195C55.526 13.4427 55.3567 13.813 55.1324 14.1304C54.9082 14.4435 54.6289 14.689 54.2946 14.8667C53.9645 15.0402 53.5836 15.127 53.152 15.127C52.7288 15.127 52.3606 15.0465 52.0475 14.8857C51.7343 14.7207 51.4698 14.488 51.254 14.1875C51.0382 13.887 50.8647 13.5379 50.7335 13.1401C50.6066 12.7381 50.5114 12.3001 50.4479 11.8262V11.4009C50.5114 10.8973 50.6066 10.4403 50.7335 10.0298C50.8647 9.61507 51.0382 9.25749 51.254 8.95703C51.4698 8.65234 51.7322 8.41748 52.0411 8.25244C52.3543 8.0874 52.7203 8.00488 53.1393 8.00488C53.5752 8.00488 53.9581 8.0874 54.2882 8.25244C54.6225 8.41748 54.9039 8.65446 55.1324 8.96338C55.361 9.2723 55.5323 9.64046 55.6466 10.0679C55.7609 10.4953 55.818 10.9714 55.818 11.4961ZM54.1359 11.6294V11.4961C54.1359 11.1914 54.1084 10.91 54.0533 10.6519C53.9983 10.3895 53.9137 10.161 53.7994 9.96631C53.6852 9.76742 53.5371 9.61296 53.3551 9.50293C53.1731 9.3929 52.9531 9.33789 52.6949 9.33789C52.4368 9.33789 52.2146 9.38021 52.0284 9.46484C51.8422 9.54948 51.6899 9.67008 51.5714 9.82666C51.4529 9.98324 51.3598 10.1694 51.2921 10.3853C51.2286 10.5968 51.1863 10.8317 51.1652 11.0898V12.1436C51.2032 12.4567 51.2773 12.7381 51.3873 12.9878C51.4974 13.2375 51.6582 13.4364 51.8698 13.5845C52.0856 13.7326 52.3649 13.8066 52.7076 13.8066C52.9658 13.8066 53.1858 13.7495 53.3678 13.6353C53.5498 13.521 53.6979 13.3644 53.8121 13.1655C53.9264 12.9624 54.0089 12.7297 54.0597 12.4673C54.1105 12.2049 54.1359 11.9256 54.1359 11.6294ZM58.8204 8.13184V15H57.1383V8.13184H58.8204ZM57.024 6.33545C57.024 6.08577 57.1087 5.87842 57.278 5.71338C57.4515 5.54834 57.6842 5.46582 57.9762 5.46582C58.2682 5.46582 58.4988 5.54834 58.6681 5.71338C58.8416 5.87842 58.9283 6.08577 58.9283 6.33545C58.9283 6.58089 58.8416 6.78613 58.6681 6.95117C58.4988 7.11621 58.2682 7.19873 57.9762 7.19873C57.6842 7.19873 57.4515 7.11621 57.278 6.95117C57.1087 6.78613 57.024 6.58089 57.024 6.33545ZM63.505 15.127C62.9845 15.127 62.5169 15.0423 62.1022 14.873C61.6875 14.7038 61.3341 14.4689 61.0421 14.1685C60.7544 13.8638 60.5322 13.5104 60.3756 13.1084C60.2233 12.7021 60.1471 12.2663 60.1471 11.8008V11.5469C60.1471 11.0179 60.2233 10.5376 60.3756 10.106C60.528 9.67008 60.7438 9.29557 61.0231 8.98242C61.3024 8.66927 61.6367 8.42806 62.026 8.25879C62.4153 8.08952 62.8448 8.00488 63.3146 8.00488C63.8012 8.00488 64.2308 8.0874 64.6031 8.25244C64.9755 8.41325 65.2866 8.64176 65.5363 8.93799C65.7859 9.23421 65.9742 9.58968 66.1012 10.0044C66.2281 10.4149 66.2916 10.8698 66.2916 11.3691V12.0737H60.9088V10.9185H64.6412V10.7915C64.6328 10.5249 64.582 10.2816 64.4889 10.0615C64.3958 9.83724 64.2519 9.65951 64.0573 9.52832C63.8626 9.3929 63.6108 9.3252 63.3019 9.3252C63.0522 9.3252 62.8343 9.38021 62.6481 9.49023C62.4661 9.59603 62.3138 9.74837 62.191 9.94727C62.0726 10.1419 61.9837 10.3747 61.9244 10.6455C61.8652 10.9163 61.8356 11.2168 61.8356 11.5469V11.8008C61.8356 12.0885 61.8737 12.3551 61.9498 12.6006C62.0302 12.846 62.1466 13.0597 62.299 13.2417C62.4555 13.4194 62.6417 13.5591 62.8575 13.6606C63.0776 13.758 63.3273 13.8066 63.6066 13.8066C63.9578 13.8066 64.2752 13.7389 64.5587 13.6035C64.8465 13.4639 65.0962 13.2586 65.3077 12.9878L66.152 13.8638C66.0081 14.0754 65.8134 14.2785 65.568 14.4731C65.3268 14.6678 65.0348 14.8265 64.692 14.9492C64.3492 15.0677 63.9536 15.127 63.505 15.127ZM71.5348 13.54V5.25H73.2233V15H71.6998L71.5348 13.54ZM67.1232 11.6484V11.5151C67.1232 10.9904 67.1824 10.5143 67.3009 10.0869C67.4236 9.65527 67.6014 9.28499 67.8341 8.97607C68.0669 8.66715 68.3483 8.42806 68.6783 8.25879C69.0127 8.08952 69.3914 8.00488 69.8146 8.00488C70.2251 8.00488 70.5826 8.0874 70.8873 8.25244C71.1962 8.41748 71.4586 8.65234 71.6744 8.95703C71.8945 9.26172 72.0701 9.62354 72.2013 10.0425C72.3325 10.4572 72.4277 10.9142 72.4869 11.4136V11.7754C72.4277 12.262 72.3325 12.7085 72.2013 13.1147C72.0701 13.521 71.8945 13.8765 71.6744 14.1812C71.4586 14.4816 71.1962 14.7144 70.8873 14.8794C70.5784 15.0444 70.2166 15.127 69.8019 15.127C69.3829 15.127 69.0063 15.0402 68.672 14.8667C68.3419 14.6932 68.0605 14.4499 67.8278 14.1367C67.5992 13.8236 67.4236 13.4554 67.3009 13.0322C67.1824 12.609 67.1232 12.1478 67.1232 11.6484ZM68.8053 11.5151V11.6484C68.8053 11.9447 68.8307 12.2218 68.8815 12.48C68.9323 12.7381 69.0148 12.9666 69.129 13.1655C69.2433 13.3602 69.3893 13.5125 69.567 13.6226C69.749 13.7326 69.969 13.7876 70.2272 13.7876C70.5573 13.7876 70.8281 13.7157 71.0397 13.5718C71.2555 13.4237 71.4226 13.2227 71.5411 12.9688C71.6596 12.7106 71.7358 12.4207 71.7697 12.0991V11.1025C71.7527 10.8486 71.7083 10.6138 71.6364 10.3979C71.5686 10.1821 71.4713 9.99593 71.3444 9.83936C71.2216 9.68278 71.0693 9.56006 70.8873 9.47119C70.7054 9.38232 70.4895 9.33789 70.2399 9.33789C69.9817 9.33789 69.7617 9.39502 69.5797 9.50928C69.3977 9.6193 69.2496 9.77376 69.1354 9.97266C69.0211 10.1715 68.9365 10.4022 68.8815 10.6646C68.8307 10.9269 68.8053 11.2104 68.8053 11.5151Z"
    fill="black" />
  <path
    d="M21.1945 10.5C21.1945 15.854 16.6492 20.25 10.9722 20.25C5.29521 20.25 0.75 15.854 0.75 10.5C0.75 5.14598 5.29521 0.75 10.9722 0.75C16.6492 0.75 21.1945 5.14598 21.1945 10.5Z"
    stroke="#00893F" stroke-width="1.5" />
  <path d="M7.31482 10.5L10.4497 13.5L16.1971 8" stroke="#00893F" stroke-width="1.5" stroke-linecap="round" />
</svg>