<?xml version="1.0" encoding="UTF-8"?>
<svg width="16px" height="17px" viewBox="0 0 16 17" version="1.1" xmlns="http://www.w3.org/2000/svg" xmlns:xlink="http://www.w3.org/1999/xlink">
    <title>Group 3</title>
    <g id="Page-1" stroke="none" stroke-width="1" fill="none" fill-rule="evenodd">
        <g id="Search" transform="translate(-424.000000, -176.000000)" fill="#7B7B93">
            <g id="Group-3" transform="translate(424.500000, 176.243919)">
                <path d="M7.97260621,11.159956 C7.6101928,11.2999957 7.23415864,11.4008555 6.84989824,11.4607049 C6.47049448,11.5005106 6.08789515,11.5005106 5.70847557,11.4607049 C5.32323435,11.4007147 4.946251,11.2994793 4.58296752,11.1588764 C4.23599413,11.0048484 3.90718176,10.8143945 3.6020673,10.5919113 C3.31625286,10.3612293 3.05423124,10.1022576 2.82079582,9.81970605 C2.59436851,9.51524887 2.40065634,9.18815064 2.24421538,8.84398166 C2.1026291,8.48552707 2.00063952,8.1136005 1.94014501,7.7335532 C1.8998997,7.35826255 1.8998997,6.97984253 1.94014501,6.60455188 C2.00079772,6.22351883 2.10315115,5.85066909 2.24530693,5.49135392 C2.4010202,5.14817069 2.59357753,4.82296574 2.81850196,4.52118418 C3.05174755,4.23849183 3.31359515,3.97931675 3.59925139,3.74844689 C3.90708685,3.52447731 4.23779758,3.3328968 4.5857676,3.17814906 C4.94816519,3.0381094 5.32419935,2.9372339 5.70844393,2.87741584 C6.08787933,2.83759451 6.47049448,2.83759451 6.84992988,2.87741584 C7.23515528,2.93739037 7.61213862,3.03862574 7.97540629,3.17922869 C8.32495828,3.3343989 8.65612779,3.52651141 8.96315644,3.75112251 C9.10426812,3.86500057 9.23903611,3.98613879 9.36877343,4.11322283 C9.49643837,4.24071368 9.61817093,4.37310202 9.73265807,4.51170216 C9.96122103,4.81806826 10.1565784,5.14745094 10.3141743,5.49413907 C10.4557605,5.85257801 10.5577343,6.22450458 10.6182288,6.60456753 C10.6584741,6.97984253 10.6584741,7.35826255 10.6182288,7.73353755 C10.5575761,8.11457061 10.4552385,8.48743599 10.3130669,8.84673551 C10.1573536,9.18993439 9.96479628,9.51515499 9.73985603,9.81693655 C9.50662626,10.0996133 9.24479448,10.3587727 8.95913824,10.5896425 C8.65130278,10.8136121 8.32057623,11.0052083 7.97260621,11.159956 M14.9816014,14.8375853 C14.9705276,14.5888154 14.8851012,14.3541121 14.7031747,14.1741728 L14.3076824,13.7830006 C13.9897065,13.4684825 13.6733126,13.1555447 13.3553367,12.8410422 C12.9693361,12.4592581 12.5833356,12.0774896 12.197335,11.6956899 C11.9083882,11.4099151 11.6194415,11.1241246 11.3305106,10.8383186 C11.4021105,10.7424031 11.4711477,10.6447509 11.5376537,10.5456435 C11.8809411,10.0340058 12.141966,9.4534906 12.3112368,8.86360286 C12.406155,8.53190445 12.4599419,8.19549632 12.5042371,7.85437848 C12.5390404,7.58838136 12.5548601,7.3192705 12.5485322,7.05012836 C12.5342945,6.44304469 12.4362124,5.82184752 12.2416301,5.24605763 C12.042302,4.65615425 11.7638753,4.08347809 11.3889485,3.57966389 C11.1817105,3.30113361 10.9618168,3.03044242 10.7150295,2.78478625 C10.6916796,2.76148804 10.6665896,2.73953545 10.6402498,2.71878767 C10.2037844,2.30239265 9.70195204,1.93627108 9.16153542,1.66603365 C8.61101002,1.38751901 8.01935341,1.176286 7.40871316,1.07458122 C6.79490898,0.974456775 6.18268676,0.93690424 5.56571864,1.01668773 C5.22084928,1.06207936 4.88072582,1.11369845 4.54534828,1.21072481 C4.20997074,1.30615519 3.88408501,1.43760471 3.5676911,1.58310513 C2.99343615,1.84597288 2.46505832,2.21680416 1.99995928,2.64085052 C1.53011432,3.07113998 1.12038421,3.58748734 0.808736207,4.14137158 C0.511325932,4.67180114 0.280358378,5.25544577 0.156964754,5.85002757 C0.0319891594,6.4492878 -0.0217978052,7.072034 0.0383170376,7.6822627 C0.0715383981,8.0218002 0.122161424,8.36290239 0.20600581,8.69619679 C0.281940348,8.99660142 0.387932308,9.28451984 0.509743963,9.56927758 C0.633137588,9.85718035 0.767604999,10.1372753 0.933711802,10.4048215 C1.11880224,10.7021124 1.33553207,10.9822074 1.56491765,11.2482045 C1.75159006,11.4641159 1.95566413,11.6643961 2.17397593,11.8474647 C2.44607469,12.0759093 2.73241118,12.2902717 3.0377313,12.4733403 C3.33988748,12.6564245 3.65944533,12.7987956 3.98691303,12.9317942 C4.23686422,13.0334989 4.49472525,13.1180078 4.7573322,13.1821444 C5.35689866,13.3276605 5.98968648,13.3949577 6.6066546,13.3573896 C7.21887681,13.319837 7.83584494,13.2103088 8.41168185,12.995962 C8.73914955,12.8739007 9.06503528,12.7330787 9.3703554,12.5625432 C9.58558236,12.4425942 9.78785298,12.3060125 9.98471327,12.1609658 L10.7166115,12.8848535 L11.8746132,14.0302058 L12.871254,15.0159598 C13.0326149,15.1755738 13.1923938,15.3382858 13.3553367,15.4947547 C13.3569187,15.496335 13.3600826,15.4994644 13.3616646,15.5010134 C13.5340992,15.6715802 13.7887963,15.7763987 14.0324197,15.7763987 C14.2649692,15.7763987 14.5433958,15.6746939 14.7031747,15.5010134 C14.8692815,15.3226389 14.9926752,15.0879355 14.9816014,14.8375853" id="Fill-1"></path>
            </g>
        </g>
    </g>
</svg>