<svg id="a" height="20" width="20" xmlns="http://www.w3.org/2000/svg" viewBox="0 0 20 20"><path d="M16.43564,8.51485l-2.67327-2.27723-2.47525,2.17822h1.38614l1.08911-.89109,1.08911,.89109c.59406,0,1.08911,0,1.58416,.09901Z" fill="#f0f6fc99"/><polygon points="9.30693 1.28713 13.16832 4.65347 13.86139 3.9604 9.30693 0 4.75247 3.9604 5.44554 4.65347 9.30693 1.28713" fill="#f0f6fc99"/><path d="M8.81188,9.80198l-4.05941-3.56436L.19802,10.19802l.69307,.69307,3.86139-3.36634,3.86139,3.36634,.29703-.29703c0-.29703-.09901-.49505-.09901-.79208h0Z" fill="#f0f6fc99"/><path d="M12.87129,6.0396v-.69307l-3.56436-3.16832-3.66337,3.16832v.69307l3.46535,2.9703c.19802-.29703,.59406-.59406,.9901-.59406l2.77228-2.37624Zm-4.45545,1.18812v-1.58416h1.78218v1.48515h-1.78218v.09901Z" fill="#f0f6fc99"/><path d="M1.18812,11.58416v3.16832h7.22772v-3.16832l-3.66337-3.16832-3.56436,3.16832Zm4.45545,2.17822h-1.78218v-1.78218h1.78218s0,1.78218,0,1.78218Z" fill="#f0f6fc99"/><g><path d="M13.9604,17.82178c-.19802,0-.29703,.19802-.29703,.29703v.9901h-1.68317v-6.93069h3.16832c.9901,0,1.18812,.39604,1.18812,.9901s-.49505,.89109-1.48515,.89109h-.79208c-.19802,0-.29703,.19802-.29703,.29703s0,.19802,.09901,.19802c.09901,.09901,.19802,.09901,.19802,.09901h.79208c.39604,0,.69307,0,.89109-.09901,1.08911-.29703,1.18812-1.08911,1.18812-1.48515,0-1.08911-.59406-1.58416-1.78218-1.58416h-3.56436c-.19802,0-.29703,.09901-.29703,.29703v7.62376c0,.19802,.09901,.29703,.29703,.29703h2.37624c.19802,0,.29703-.19802,.29703-.29703v-1.38614s-.19802-.19802-.29703-.19802Z" fill="#f0f6fc99"/><path d="M19.70297,17.42575c0-.09901-.09901-.19802-.09901-.19802-.09901-.09901-.19802-.09901-.29703-.09901h-.19802c-.29703,0-.39604-.09901-.59406-.19802-.09901-.09901-.29703-.09901-.49505,0-.09901,.09901-.09901,.29703,0,.49505,.29703,.29703,.59406,.39604,1.08911,.39604l.09901,1.28713c-.19802,0-.49505,.09901-.89109,.09901-1.58416,0-1.9802-.79208-2.47525-1.58416-.19802-.29703-.29703-.59406-.49505-.79208,1.28713-.09901,1.88119-.39604,1.9802-.39604,1.28713-.59406,1.88119-1.58416,1.88119-2.9703,0-1.28713-.39604-2.27723-1.18812-2.87129-.49505-.39604-.9901-.59406-1.68317-.79208-.39604-.09901-.79208-.09901-1.18812-.09901h-4.85149c-.19802,0-.29703,.09901-.29703,.29703s.19802,.29703,.29703,.29703h4.45545c.39604,0,.79208,0,1.18812,.09901,1.78218,.29703,2.57426,1.28713,2.57426,3.06931,0,1.18812-.49505,1.9802-1.48515,2.37624h0s-.89109,.39604-2.9703,.49505c-.19802,0-.29703,.19802-.29703,.29703,0,.19802,.09901,.29703,.29703,.29703,.59406,0,.79208,.39604,1.18812,1.08911,.39604,.79208,1.08911,1.9802,2.9703,1.9802,.89109,0,1.38614-.09901,1.38614-.19802,.19802,0,.19802-.19802,.19802-.29703l-.09901-2.0792Z" fill="#f0f6fc99"/></g></svg>