<?xml version="1.0" encoding="UTF-8"?>
<svg width="31px" height="27px" viewBox="0 0 31 27" version="1.1" xmlns="http://www.w3.org/2000/svg" xmlns:xlink="http://www.w3.org/1999/xlink">
    <title>Fill 1</title>
    <g id="Page-1" stroke="none" stroke-width="1" fill="none" fill-rule="evenodd">
        <g id="Search" transform="translate(-128.000000, -756.000000)" fill="#9192AA">
            <path d="M157.571429,778.5 L129.285714,778.5 L129.285714,774 C129.285714,772.939286 130.153571,772.071429 131.214286,772.071429 L133.142857,772.071429 L142.142857,772.071429 L144.714286,772.071429 L153.714286,772.071429 L155.642857,772.071429 C156.703571,772.071429 157.571429,772.939286 157.571429,774 L157.571429,778.5 Z M149.857143,781.714286 L152.428571,781.714286 L152.428571,779.785714 L149.857143,779.785714 L149.857143,781.714286 Z M133.785714,781.714286 L136.357143,781.714286 L136.357143,779.785714 L133.785714,779.785714 L133.785714,781.714286 Z M141.5,766.928571 L141.5,770.785714 L133.785714,770.785714 L133.785714,766.928571 C133.785714,766.575 134.075,766.285714 134.428571,766.285714 L140.857143,766.285714 C141.210714,766.285714 141.5,766.575 141.5,766.928571 L141.5,766.928571 Z M153.077857,766.935 L153.077857,770.785714 L145.363571,770.785714 L145.363571,766.935 C145.363571,766.581429 145.652857,766.292143 146.006429,766.292143 L152.435,766.292143 C152.788571,766.292143 153.077857,766.581429 153.077857,766.935 L153.077857,766.935 Z M130.571429,757.992857 C130.571429,757.607143 130.867143,757.285714 131.214286,757.285714 L155.642857,757.285714 C155.99,757.285714 156.285714,757.607143 156.285714,757.992857 L156.285714,770.85 C156.08,770.805 155.861429,770.785714 155.642857,770.785714 L154.363571,770.785714 L154.363571,766.935 C154.363571,765.874286 153.495714,765.006429 152.435,765.006429 L146.006429,765.006429 C144.945714,765.006429 144.077857,765.874286 144.077857,766.935 L144.077857,770.785714 L142.792143,770.785714 L142.792143,766.928571 C142.792143,765.867857 141.924286,765 140.863571,765 L134.428571,765 C133.367857,765 132.5,765.867857 132.5,766.928571 L132.5,770.785714 L131.214286,770.785714 C130.995714,770.785714 130.777143,770.811429 130.571429,770.85 L130.571429,757.992857 Z M157.571429,771.447857 L157.571429,757.992857 C157.571429,756.893571 156.703571,756 155.642857,756 L131.214286,756 C130.153571,756 129.285714,756.893571 129.285714,757.992857 L129.285714,771.447857 C128.507857,772.032857 128,772.952143 128,774 L128,779.142857 C128,779.496429 128.289286,779.785714 128.642857,779.785714 L132.5,779.785714 L132.5,782.357143 C132.5,782.710714 132.789286,783 133.142857,783 L137,783 C137.353571,783 137.642857,782.710714 137.642857,782.357143 L137.642857,779.785714 L148.571429,779.785714 L148.571429,782.357143 C148.571429,782.710714 148.860714,783 149.214286,783 L153.071429,783 C153.425,783 153.714286,782.710714 153.714286,782.357143 L153.714286,779.785714 L158.214286,779.785714 C158.567857,779.785714 158.857143,779.496429 158.857143,779.142857 L158.857143,774 C158.857143,772.952143 158.349286,772.032857 157.571429,771.447857 L157.571429,771.447857 Z" id="Fill-1"></path>
        </g>
    </g>
</svg>