<?xml version="1.0" encoding="UTF-8"?>
<svg width="300px" height="200px" viewBox="0 0 300 200" version="1.1" xmlns="http://www.w3.org/2000/svg" xmlns:xlink="http://www.w3.org/1999/xlink">
    <title>fallback-property</title>
    <g id="fallback-property" stroke="none" stroke-width="1" fill="none" fill-rule="evenodd">
        <rect fill="#F7F7F7" x="0" y="0" width="300" height="200"></rect>
        <g id="Group" opacity="0.373023624" transform="translate(69.000000, 24.000000)" fill="#999999" fill-rule="nonzero">
            <path d="M1.8875,152 L149.1125,152 C150.1544,152 151,151.1488 151,150.1 L151,140.5316 C151,139.4828 150.1544,138.6316 149.1125,138.6316 L141.853175,138.6316 L141.853175,85.5 L144.4768,85.5 C145.5187,85.5 146.3643,84.6488 146.3643,83.6 L146.3643,71.4077 C146.3643,70.3589 145.5187,69.5077 144.4768,69.5077 L141.853175,69.5077 L141.853175,13.3209 L144.40885,13.3209 C145.45075,13.3209 146.29635,12.4697 146.29635,11.4209 L146.29635,1.9 C146.29635,0.8512 145.45075,0 144.40885,0 L50.505725,0 C49.463825,0 48.618225,0.8512 48.618225,1.9 L48.618225,11.4209 C48.618225,12.4697 49.463825,13.3209 50.505725,13.3209 L53.0595125,13.3209 L53.0595125,55.0012 C50.26035,50.4906 45.0678375,47.4867 39.14675,47.4867 C30.2660625,47.4867 23.0407125,54.2925 23.0407125,62.6582 C23.0407125,64.4575 23.3766875,66.2169 24.0410875,67.9003 C23.5125875,68.5653 23.0482625,69.2683 22.62735,69.9922 C20.9644625,69.2702 19.150575,68.8693 17.308375,68.8693 C10.2831,68.8693 4.56775,74.2653 4.56775,80.9001 C4.56775,82.2453 4.8036875,83.5601 5.2717875,84.8255 C3.4635625,87.1967 2.4782875,90.0505 2.4782875,92.9822 C2.4782875,94.639 2.7878375,96.2578 3.3993875,97.8101 C1.3231375,100.5366 0.192525,103.8255 0.192525,107.198 C0.192525,115.4972 6.8912625,122.3467 15.4642875,123.215 L15.5095875,138.6316 L1.8875,138.6316 C0.8456,138.6316 0,139.4828 0,140.5316 L0,150.1 C0,151.1488 0.8456,152 1.8875,152 Z M138.078175,138.6316 L111.992925,138.6316 L111.992925,105.8205 C111.992925,98.3611 105.96425,92.2906 98.5520375,92.2906 C91.139825,92.2906 85.11115,98.3592 85.11115,105.8205 L85.11115,138.6316 L56.8345125,138.6316 L56.8345125,109.3146 C56.8345125,109.2519 56.8043125,109.2006 56.79865,109.1398 C59.4185,105.754 60.985125,101.6044 60.985125,97.1071 C60.985125,93.0069 59.6997375,89.0454 57.26675,85.652 C57.229,85.6007 57.1893625,85.5513 57.1516125,85.4981 L138.080062,85.4981 L138.080062,138.6316 L138.078175,138.6316 Z M108.219813,138.6316 L88.8880375,138.6316 L88.8880375,105.8205 C88.8880375,100.4549 93.223625,96.0906 98.553925,96.0906 C103.884225,96.0906 108.219813,100.4549 108.219813,105.8205 L108.219813,138.6316 Z M41.1493875,138.6316 L41.083325,117.5378 C45.60955,117.1616 49.74695,115.4934 53.0595125,112.9132 L53.0595125,138.6316 L41.1493875,138.6316 Z M142.5893,81.7 L57.67445,81.7 C57.8839625,80.6455 57.9896625,79.572 57.9896625,78.4871 C57.9896625,76.7182 57.6952125,74.9778 57.1516125,73.3096 L142.5893,73.3096 L142.5893,81.7 Z M52.393225,3.8 L142.52135,3.8 L142.52135,9.5209 L52.393225,9.5209 L52.393225,3.8 Z M138.078175,13.3209 L138.078175,69.5077 L56.8345125,69.5077 L56.8345125,13.3209 L138.078175,13.3209 Z M39.14675,51.2886 C45.73035,51.2886 51.139925,56.0348 51.4626875,62.0958 C51.472125,62.282 51.4777875,62.4701 51.4777875,62.6582 C51.4777875,64.2846 51.1002875,65.8711 50.3528375,67.374 C50.0017625,68.0789 50.120675,68.9301 50.65295,69.5096 C52.9500375,72.0214 54.21655,75.2096 54.21655,78.4852 C54.21655,80.5087 53.7409,82.479 52.800925,84.3429 C52.4479625,85.0421 52.559325,85.8857 53.0783875,86.4709 C53.4785375,86.9212 53.8560375,87.3905 54.205225,87.8788 C56.172,90.6186 57.210125,93.8106 57.210125,97.1071 C57.210125,105.7255 50.1301125,112.8391 41.072,113.7302 L41.045575,105.0814 L47.3970125,98.6879 C48.135025,97.945 48.135025,96.7442 47.3970125,96.0013 C46.659,95.2584 45.4661,95.2584 44.7280875,96.0013 L41.0285875,99.7253 L41.0059375,92.5357 C41.0021625,91.4888 40.15845,90.6414 39.1184375,90.6414 C39.11655,90.6414 39.1146625,90.6414 39.112775,90.6414 C38.070875,90.6452 37.2271625,91.4983 37.2309375,92.5471 L37.2535875,99.4631 L33.812675,95.9994 C33.0746625,95.2565 31.8817625,95.2565 31.14375,95.9994 C30.4057375,96.7423 30.4057375,97.9431 31.14375,98.686 L37.270575,104.8534 L37.2988875,113.7397 C28.2049125,112.879 21.08715,105.7464 21.08715,97.1052 C21.08715,93.233 22.5537375,89.4577 25.217,86.469 C25.73795,85.8857 25.847425,85.0402 25.49635,84.341 C24.556375,82.4752 24.080725,80.5049 24.080725,78.4833 C24.080725,75.2077 25.34535,72.0195 27.644325,69.5077 C28.1747125,68.9282 28.293625,68.077 27.9444375,67.3721 C27.1969875,65.8692 26.8194875,64.2827 26.8194875,62.6563 C26.8176,56.3882 32.347975,51.2886 39.14675,51.2886 Z M3.967525,107.198 C3.967525,104.3537 5.047175,101.5778 7.0064,99.3795 C7.5254625,98.7962 7.636825,97.9507 7.28575,97.2515 C6.6005875,95.8892 6.2532875,94.4528 6.2532875,92.9822 C6.2532875,90.5958 7.1781625,88.2702 8.8542625,86.4348 C9.38465,85.8534 9.5035625,85.0041 9.154375,84.2992 C8.6164375,83.2143 8.34275,82.0705 8.34275,80.9001 C8.34275,76.3629 12.3650125,72.6693 17.308375,72.6693 C18.6239625,72.6693 19.9150125,72.9486 21.0965875,73.4559 C20.5831875,75.0785 20.3038375,76.7695 20.3038375,78.4833 C20.3038375,80.6892 20.736075,82.8419 21.5948875,84.8996 C18.8240375,88.4184 17.3102625,92.7067 17.3102625,97.1052 C17.3102625,104.5475 21.5628,111.0588 27.8915875,114.6574 C25.7624875,117.2281 22.6632125,118.9115 19.22985,119.3713 L19.2072,111.6041 C19.2053125,110.5572 18.3597125,109.7098 17.3197,109.7098 C17.3178125,109.7098 17.315925,109.7098 17.3140375,109.7098 C16.2721375,109.7117 15.428425,110.5667 15.4322,111.6155 L15.45485,119.3789 C8.973175,118.541 3.967525,113.4053 3.967525,107.198 Z M19.2392875,123.2017 C24.1505625,122.6773 28.6145,120.1807 31.4438625,116.2876 C33.2955,116.9469 35.2585,117.382 37.308325,117.5435 L37.3743875,138.6335 L19.2845875,138.6335 L19.2392875,123.2017 Z M3.775,142.4316 L147.225,142.4316 L147.225,148.2 L3.775,148.2 L3.775,142.4316 Z" id="Shape" transform="translate(75.500000, 76.000000) rotate(-360.000000) translate(-75.500000, -76.000000) "></path>
            <path d="M120.853436,60 L130.146564,60 C131.169661,60 132,59.1299977 132,58.0580306 L132,49.8104866 C132,46.0547178 129.084545,43 125.5,43 C121.915455,43 119,46.0547178 119,49.8104866 L119,58.0580306 C119,59.1319397 119.830339,60 120.853436,60 Z M122.706872,49.8124286 C122.706872,48.198652 123.959795,46.8858807 125.5,46.8858807 C127.040205,46.8858807 128.293128,48.198652 128.293128,49.8124286 L128.293128,56.1180032 L122.706872,56.1180032 L122.706872,49.8124286 L122.706872,49.8124286 Z" id="Shape" transform="translate(125.500000, 51.500000) rotate(-360.000000) translate(-125.500000, -51.500000) "></path>
            <path d="M94.853436,60 L104.146564,60 C105.169661,60 106,59.1299977 106,58.0580306 L106,49.8104866 C106,46.0547178 103.084545,43 99.5,43 C95.9154548,43 93,46.0547178 93,49.8104866 L93,58.0580306 C93,59.1319397 93.8284859,60 94.853436,60 Z M96.706872,49.8124286 C96.706872,48.198652 97.9597947,46.8858807 99.5,46.8858807 C101.040205,46.8858807 102.293128,48.198652 102.293128,49.8124286 L102.293128,56.1180032 L96.706872,56.1180032 L96.706872,49.8124286 Z" id="Shape" transform="translate(99.500000, 51.500000) rotate(-360.000000) translate(-99.500000, -51.500000) "></path>
            <path d="M65.853436,60 L75.146564,60 C76.1696607,60 77,59.1299977 77,58.0580306 L77,49.8104866 C77,46.0547178 74.0845452,43 70.5,43 C66.9154548,43 64,46.0547178 64,49.8104866 L64,58.0580306 C64,59.1319397 64.8303393,60 65.853436,60 Z M67.706872,49.8124286 C67.706872,48.198652 68.9597947,46.8858807 70.5,46.8858807 C72.0402053,46.8858807 73.293128,48.198652 73.293128,49.8124286 L73.293128,56.1180032 L67.706872,56.1180032 L67.706872,49.8124286 L67.706872,49.8124286 Z" id="Shape" transform="translate(70.500000, 51.500000) rotate(-360.000000) translate(-70.500000, -51.500000) "></path>
            <path d="M65.853436,133 L75.146564,133 C76.1696607,133 77,132.129998 77,131.058031 L77,122.810487 C77,119.054718 74.0845452,116 70.5,116 C66.9154548,116 64,119.054718 64,122.810487 L64,131.058031 C64,132.129998 64.8303393,133 65.853436,133 Z M67.706872,122.810487 C67.706872,121.19671 68.9597947,119.883939 70.5,119.883939 C72.0402053,119.883939 73.293128,121.19671 73.293128,122.810487 L73.293128,129.116061 L67.706872,129.116061 L67.706872,122.810487 L67.706872,122.810487 Z" id="Shape" transform="translate(70.500000, 124.500000) rotate(-360.000000) translate(-70.500000, -124.500000) "></path>
            <path d="M120.853436,133 L130.146564,133 C131.169661,133 132,132.129998 132,131.058031 L132,122.810487 C132,119.054718 129.084545,116 125.5,116 C121.915455,116 119,119.054718 119,122.810487 L119,131.058031 C119,132.129998 119.830339,133 120.853436,133 Z M122.706872,122.810487 C122.706872,121.19671 123.959795,119.883939 125.5,119.883939 C127.040205,119.883939 128.293128,121.19671 128.293128,122.810487 L128.293128,129.116061 L122.706872,129.116061 L122.706872,122.810487 L122.706872,122.810487 Z" id="Shape" transform="translate(125.500000, 124.500000) rotate(-360.000000) translate(-125.500000, -124.500000) "></path>
            <path d="M65.853436,108 L75.146564,108 C76.1696607,108 77,107.129998 77,106.058031 L77,97.8104866 C77,94.0547178 74.0845452,91 70.5,91 C66.9154548,91 64,94.0547178 64,97.8104866 L64,106.058031 C64,107.129998 64.8303393,108 65.853436,108 Z M67.706872,97.8104866 C67.706872,96.1967101 68.9597947,94.8839388 70.5,94.8839388 C72.0402053,94.8839388 73.293128,96.1967101 73.293128,97.8104866 L73.293128,104.116061 L67.706872,104.116061 L67.706872,97.8104866 L67.706872,97.8104866 Z" id="Shape" transform="translate(70.500000, 99.500000) rotate(-360.000000) translate(-70.500000, -99.500000) "></path>
            <path d="M120.853436,108 L130.146564,108 C131.169661,108 132,107.129998 132,106.058031 L132,97.8104866 C132,94.0547178 129.084545,91 125.5,91 C121.915455,91 119,94.0547178 119,97.8104866 L119,106.058031 C119,107.129998 119.830339,108 120.853436,108 Z M122.706872,97.8104866 C122.706872,96.1967101 123.959795,94.8839388 125.5,94.8839388 C127.040205,94.8839388 128.293128,96.1967101 128.293128,97.8104866 L128.293128,104.116061 L122.706872,104.116061 L122.706872,97.8104866 L122.706872,97.8104866 Z" id="Shape" transform="translate(125.500000, 99.500000) rotate(-360.000000) translate(-125.500000, -99.500000) "></path>
            <path d="M120.853436,36 L130.146564,36 C131.169661,36 132,35.1299977 132,34.0580306 L132,25.8104866 C132,22.0547178 129.084545,19 125.5,19 C121.915455,19 119,22.0547178 119,25.8104866 L119,34.0580306 C119,35.1299977 119.830339,36 120.853436,36 Z M122.706872,25.8104866 C122.706872,24.1967101 123.959795,22.8839388 125.5,22.8839388 C127.040205,22.8839388 128.293128,24.1967101 128.293128,25.8104866 L128.293128,32.1160612 L122.706872,32.1160612 L122.706872,25.8104866 L122.706872,25.8104866 Z" id="Shape" transform="translate(125.500000, 27.500000) rotate(-360.000000) translate(-125.500000, -27.500000) "></path>
            <path d="M94.853436,36 L104.146564,36 C105.169661,36 106,35.1299977 106,34.0580306 L106,25.8104866 C106,22.0547178 103.084545,19 99.5,19 C95.9154548,19 93,22.0547178 93,25.8104866 L93,34.0580306 C93,35.1299977 93.8284859,36 94.853436,36 Z M96.706872,25.8104866 C96.706872,24.1967101 97.9597947,22.8839388 99.5,22.8839388 C101.040205,22.8839388 102.293128,24.1967101 102.293128,25.8104866 L102.293128,32.1160612 L96.706872,32.1160612 L96.706872,25.8104866 Z" id="Shape" transform="translate(99.500000, 27.500000) rotate(-360.000000) translate(-99.500000, -27.500000) "></path>
            <path d="M65.853436,36 L75.146564,36 C76.1696607,36 77,35.1299977 77,34.0580306 L77,25.8104866 C77,22.0547178 74.0845452,19 70.5,19 C66.9154548,19 64,22.0547178 64,25.8104866 L64,34.0580306 C64,35.1299977 64.8303393,36 65.853436,36 Z M67.706872,25.8104866 C67.706872,24.1967101 68.9597947,22.8839388 70.5,22.8839388 C72.0402053,22.8839388 73.293128,24.1967101 73.293128,25.8104866 L73.293128,32.1160612 L67.706872,32.1160612 L67.706872,25.8104866 L67.706872,25.8104866 Z" id="Shape" transform="translate(70.500000, 27.500000) rotate(-360.000000) translate(-70.500000, -27.500000) "></path>
        </g>
    </g>
</svg>