<?xml version="1.0" encoding="UTF-8"?>
<svg width="29px" height="26px" viewBox="0 0 29 26" version="1.1" xmlns="http://www.w3.org/2000/svg" xmlns:xlink="http://www.w3.org/1999/xlink">
    <title>Group 3</title>
    <g id="Page-1" stroke="none" stroke-width="1" fill="none" fill-rule="evenodd">
        <g id="Search" transform="translate(-352.000000, -425.000000)">
            <g id="Group-3" transform="translate(352.000000, 425.000000)">
                <path d="M14.5,5.24189454 L17.7643529,2.63353103 L20.4640779,1.8996626 L23.8965675,2.63353103 L25.9960776,4.3733754 L27.3903165,6.74055497 L25.9960776,11.6168822 L23.1455138,15.1567305 L14.5,24.209746 L8.57196846,18.3592868 L1.9154068,10.6660536 L1.9154068,6.2093892 L3.28520106,3.27526877 C4.2055515,2.35819799 4.82744529,1.8996626 5.15088241,1.8996626 C5.47431953,1.8996626 6.61468155,1.8996626 8.57196846,1.8996626 L11.4859089,2.63353103 L14.5,5.24189454 Z" id="Path-3" fill="#000000" opacity="0.597675868"></path>
                <path d="M7.75875862,2.63353103 C9.03275862,2.63353103 10.3094483,3.15308276 11.3167241,4.2163931 L13.3761034,6.40173793 C13.8884828,6.93966897 14.7397586,6.95984138 15.2776897,6.44746207 C15.2933793,6.43266897 15.3081724,6.41742759 15.3234138,6.40173793 L17.3684483,4.23073793 C19.3834483,2.10366897 22.4698276,2.10366897 24.4848276,4.23073793 C26.4998276,6.3578069 26.4998276,9.82253103 24.4848276,11.9491517 C21.103931,15.5183241 17.723931,19.0969103 14.3430345,22.6660828 L4.2007931,11.9352552 C2.18624138,9.80504828 2.18534483,6.35735862 4.2007931,4.23073793 L4.2007931,4.2163931 C5.20806897,3.15308276 6.48475862,2.63353103 7.75875862,2.63353103 M2.25348276,2.36725517 C-0.753103448,5.5406 -0.749068966,10.6092552 2.25348276,13.7843931 L13.3622069,25.5516345 C13.8745862,26.0895655 14.7258621,26.1101862 15.2637931,25.5973586 C15.2794828,25.5825655 15.2942759,25.5673241 15.309069,25.5516345 C19.0172069,21.6377379 22.724,17.7126345 26.4321379,13.7982897 C29.4387241,10.6253931 29.4387241,5.55494483 26.4321379,2.3816 C23.426,-0.792193103 18.4277241,-0.792193103 15.4211379,2.3816 L14.3430345,3.51618621 L13.2640345,2.36725517 C11.7609655,0.780806897 9.7612069,-8.96551724e-05 7.75875862,-8.96551724e-05 C5.75631034,-8.96551724e-05 3.75655172,0.780806897 2.25348276,2.36725517 Z" id="Fill-1" fill="#FFFFFF"></path>
            </g>
        </g>
    </g>
</svg>