<svg width="299" height="62" viewBox="0 0 299 62" fill="none" xmlns="http://www.w3.org/2000/svg">
  <path
    d="M23.7108 62H9.45206C8.36465 62 7.48338 61.1187 7.48338 60.0313V14.3782C7.48338 13.2908 8.36465 12.4096 9.45206 12.4096C9.45206 12.4096 9.45206 12.4096 9.45505 12.4096H31.0269C38.4206 12.4096 42.0145 15.5762 42.0145 22.0946C42.0145 24.9685 40.7657 31.6542 29.1986 31.6542H24.1051C23.0177 31.6542 22.1365 30.773 22.1365 29.6856C22.1365 28.5982 23.0177 27.7169 24.1051 27.7169H29.1986C35.0897 27.7169 38.0801 25.8259 38.0801 22.0946C38.0801 18.453 36.927 16.3469 31.0269 16.3469H11.4178V58.0656H21.7421V51.9355C21.7421 50.8481 22.6234 49.9669 23.7108 49.9669C24.7982 49.9669 25.6795 50.8481 25.6795 51.9355V60.0313C25.6795 61.1187 24.7982 62 23.7108 62ZM49.7458 61.9074C37.9725 61.9074 34.319 55.0454 31.6512 50.0356C29.4585 45.919 28.153 43.768 24.6638 43.768C23.5823 43.768 22.7011 42.8927 22.6951 41.8113C22.6891 40.7299 23.5584 39.8456 24.6399 39.8337C36.912 39.6963 42.2295 37.1958 42.2803 37.1689C42.3072 37.157 42.3431 37.1391 42.367 37.1271C48.6016 34.4444 51.5054 29.8618 51.5054 22.707C51.5054 9.72391 44.5388 3.93437 28.9148 3.93437H1.96868C0.881276 3.93736 0 3.05609 0 1.96868C0 0.881276 0.881276 0 1.96868 0H28.9178C37.7097 0 44.1385 1.78346 48.5717 5.45196C53.1335 9.22801 55.4457 15.0355 55.4457 22.707C55.4457 31.3734 51.583 37.4348 43.9652 40.7269C43.4305 40.9808 39.759 42.6 32.1233 43.3677C33.3361 44.8226 34.2533 46.5493 35.1256 48.1834C37.8052 53.2141 40.3356 57.97 49.7458 57.97C52.3747 57.97 54.2239 57.7759 55.38 57.5936L54.7885 49.6771C54.7855 49.6771 54.7825 49.6771 54.7795 49.6771C52.3299 49.6771 50.2925 48.9063 48.5449 47.323C47.7413 46.5941 47.6785 45.3484 48.4104 44.5418C49.1394 43.7382 50.3851 43.6754 51.1917 44.4073C52.2223 45.3424 53.2978 45.7427 54.7825 45.7427C55.5174 45.7427 56.2164 45.6083 56.2224 45.6053C56.7751 45.4977 57.3487 45.6292 57.7938 45.9727C58.2419 46.3133 58.5227 46.8301 58.5645 47.3917L59.4338 59.0126C59.4996 59.9118 58.9499 60.7423 58.0925 61.0261C57.8207 61.1157 55.2874 61.9074 49.7458 61.9074Z"
    fill="url(#paint0_linear_1544_3)" />
  <path
    d="M78.7599 52.5738C78.7599 53.7956 77.792 54.5006 75.9338 54.5006H72.2803V47.4385H75.7307C77.4962 47.4385 78.4044 48.1764 78.4044 49.2757C78.4044 49.9807 78.0429 50.5274 77.4664 50.8291C78.255 51.0801 78.7599 51.6865 78.7599 52.5738ZM73.9054 48.6693V50.3332H75.5305C76.3282 50.3332 76.7613 50.0494 76.7613 49.4968C76.7613 48.9441 76.3282 48.6693 75.5305 48.6693H73.9054ZM77.1139 52.4005C77.1139 51.806 76.6598 51.5222 75.8114 51.5222H73.9054V53.2668H75.8114C76.6598 53.2698 77.1139 53.0069 77.1139 52.4005Z"
    fill="#A7A9AC" />
  <path
    d="M84.7557 51.9972V54.5006H83.1216V51.9793L80.3882 47.4385H82.1238L84.0089 50.5752L85.8969 47.4385H87.5011L84.7557 51.9972Z"
    fill="#A7A9AC" />
  <path
    d="M100.547 52.5738C100.547 53.7956 99.5786 54.5006 97.7204 54.5006H94.0669V47.4385H97.5173C99.2828 47.4385 100.191 48.1764 100.191 49.2757C100.191 49.9807 99.8295 50.5274 99.253 50.8291C100.045 51.0801 100.547 51.6865 100.547 52.5738ZM95.695 48.6693V50.3332H97.3201C98.1178 50.3332 98.5509 50.0494 98.5509 49.4968C98.5509 48.9441 98.1178 48.6693 97.3201 48.6693H95.695ZM98.9035 52.4005C98.9035 51.806 98.4494 51.5222 97.601 51.5222H95.695V53.2668H97.601C98.4494 53.2698 98.9035 53.0069 98.9035 52.4005Z"
    fill="#A7A9AC" />
  <path
    d="M107.804 54.5006L106.441 52.532H106.361H104.939V54.5006H103.305V47.4385H106.361C108.246 47.4385 109.429 48.4183 109.429 50.0016C109.429 51.0622 108.894 51.8389 107.977 52.2302L109.56 54.5006H107.804ZM106.271 48.7708H104.939V51.2324H106.271C107.269 51.2324 107.774 50.7694 107.774 50.0016C107.774 49.2219 107.269 48.7708 106.271 48.7708Z"
    fill="#A7A9AC" />
  <path d="M112.236 47.4385H113.87V54.5006H112.236V47.4385Z" fill="#A7A9AC" />
  <path
    d="M123.537 47.4385V54.5006H122.196L118.674 50.2137V54.5006H117.061V47.4385H118.414L121.924 51.7254V47.4385H123.537Z"
    fill="#A7A9AC" />
  <path
    d="M126.729 47.4385H129.937C132.249 47.4385 133.832 48.8306 133.832 50.9696C133.832 53.1085 132.249 54.5006 129.937 54.5006H126.729V47.4385ZM129.856 53.1593C131.257 53.1593 132.177 52.3228 132.177 50.9696C132.177 49.6163 131.26 48.7798 129.856 48.7798H128.363V53.1593H129.856Z"
    fill="#A7A9AC" />
  <path d="M136.577 47.4385H138.211V53.1683H141.754V54.5006H136.577V47.4385Z" fill="#A7A9AC" />
  <path
    d="M149.654 53.1892V54.5006H144.184V47.4385H149.523V48.7499H145.809V50.2825H149.089V51.5551H145.809V53.1892H149.654Z"
    fill="#A7A9AC" />
  <path
    d="M89.669 26.4969L92.7759 30.9302C93.9768 32.6689 95.0135 33.4575 96.8358 33.4575H97.3735V34.3269C97.3735 36.4389 95.3032 37.5174 92.8596 37.5174C90.4577 37.5174 88.8834 36.9796 86.9356 33.6218L84.2021 29.1079H80.1841V37.1021H74.0122V13.5706C74.0122 10.4219 74.8009 10.4219 80.1841 10.4219H84.3246C90.7863 10.4219 94.8462 13.1135 94.8462 18.4997C94.8462 22.4371 92.8177 25.0451 89.669 26.4969ZM83.043 15.5183H80.1841V24.1339H83.1655C86.2306 24.1339 88.5099 22.3953 88.5099 19.4945C88.5099 16.3458 86.0244 15.5183 83.043 15.5183Z"
    fill="#1F313B" />
  <path
    d="M118.416 37.0991H107.688C102.054 37.0991 100.19 35.235 100.19 29.7681V13.5706C100.19 10.4219 101.101 10.4219 106.404 10.4219H116.178C118.165 10.4219 118.165 12.1217 118.165 15.4765H106.401V21.9382H115.721V26.4103H106.401V29.2692C106.401 31.217 107.228 32.0445 109.26 32.0445H118.413V37.0991H118.416Z"
    fill="#1F313B" />
  <path
    d="M140.912 37.5992L128.651 20.4098V37.1033H122.602V11.5014C124.26 10.6321 126.662 10.1332 128.484 10.0107L140.744 26.9522V10.426H146.791V36.0666C145.136 36.936 142.734 37.4737 140.912 37.5992Z"
    fill="#1F313B" />
  <path
    d="M158.848 37.1001V15.9345H150.396V10.4258H171.356C173.552 10.4258 173.552 12.2899 173.552 15.9345H165.062V37.1001H158.848Z"
    fill="#1F313B" />
  <path
    d="M181.176 37.0991V13.5706C181.176 10.4219 182.087 10.4219 187.348 10.4219H197C198.99 10.4219 198.99 12.1217 198.99 15.6826H187.351V23.3901H197.251V28.1101H187.351V37.0991H181.176Z"
    fill="#1F313B" />
  <path
    d="M220.775 37.0991H210.048C204.413 37.0991 202.549 35.235 202.549 29.7681V13.5706C202.549 10.4219 203.46 10.4219 208.763 10.4219H218.538C220.524 10.4219 220.524 12.1217 220.524 15.4765H208.76V21.9382H218.081V26.4103H208.76V29.2692C208.76 31.217 209.588 32.0445 211.619 32.0445H220.772V37.0991H220.775Z"
    fill="#1F313B" />
  <path
    d="M231.881 37.1001V15.9345H223.43V10.4258H244.389C246.585 10.4258 246.585 12.2899 246.585 15.9345H238.095V37.1001H231.881Z"
    fill="#1F313B" />
  <path
    d="M270.57 32.419C270.57 35.8575 266.304 37.5155 261.417 37.5155C252.718 37.5155 247.789 31.8813 247.789 22.976C247.789 15.146 253.091 10.0107 261.375 10.0107C267.09 10.0107 271.44 12.7024 271.44 16.9295C271.44 19.2895 269.823 20.6578 267.296 20.6578H265.97V19.7466C265.97 16.9295 264.395 15.1072 261.247 15.1072C257.145 15.1072 254.205 18.2977 254.205 22.976C254.205 28.6101 257.477 32.1711 263.442 32.1711C266.012 32.1711 268.33 31.5915 270.567 30.6804V32.419H270.57Z"
    fill="#1F313B" />
  <path
    d="M298.737 34.119C298.737 37.2677 297.948 37.2677 292.565 37.2677V27.1195H281.464V37.1034H275.292V13.4075C275.292 10.2588 276.081 10.2588 281.464 10.2588V21.6497H292.565V10.4261H298.737V34.119Z"
    fill="#1F313B" />
  <defs>
    <linearGradient id="paint0_linear_1544_3" x1="56.2201" y1="63.0343" x2="-1.04481" y2="2.09864"
      gradientUnits="userSpaceOnUse">
      <stop stop-color="#E87A38" />
      <stop offset="1" stop-color="#EF4230" />
    </linearGradient>
  </defs>
</svg>