<?xml version="1.0" encoding="UTF-8"?>
<svg width="26px" height="26px" viewBox="0 0 26 26" version="1.1" xmlns="http://www.w3.org/2000/svg" xmlns:xlink="http://www.w3.org/1999/xlink">
    <title>Group 3</title>
    <defs>
        <polygon id="path-1" points="0 -0.000236169552 24.665489 -0.000236169552 24.665489 24.9067952 0 24.9067952"></polygon>
    </defs>
    <g id="Page-1" stroke="none" stroke-width="1" fill="none" fill-rule="evenodd">
        <g id="Search" transform="translate(-602.000000, -1192.000000)">
            <g id="Group-3" transform="translate(602.960789, 1192.334478)">
                <mask id="mask-2" fill="white">
                    <use xlink:href="#path-1"></use>
                </mask>
                <g id="Clip-2"></g>
                <path d="M23.4846412,22.5450997 C23.4846412,23.1963373 22.955031,23.7259475 22.3037935,23.7259475 L12.2795768,23.7259475 L12.2795768,13.1898333 L1.18078872,13.1898333 L1.18078872,2.36145935 C1.18078872,1.71022181 1.71039894,1.18061159 2.36163648,1.18061159 L22.3037935,1.18061159 C22.955031,1.18061159 23.4846412,1.71022181 23.4846412,2.36145935 L23.4846412,22.5450997 Z M1.18078872,22.5450997 L1.18078872,14.3706811 L11.0987291,14.3706811 L11.0987291,23.7259475 L2.36163648,23.7259475 C1.71039894,23.7259475 1.18078872,23.1963373 1.18078872,22.5450997 L1.18078872,22.5450997 Z M22.3037935,-0.000236169552 L2.36163648,-0.000236169552 C1.05975182,-0.000236169552 -5.90423881e-05,1.0595747 -5.90423881e-05,2.36145935 L-5.90423881e-05,22.5450997 C-5.90423881e-05,23.8475748 1.05975182,24.9067952 2.36163648,24.9067952 L22.3037935,24.9067952 C23.6062686,24.9067952 24.665489,23.8475748 24.665489,22.5450997 L24.665489,2.36145935 C24.665489,1.0595747 23.6062686,-0.000236169552 22.3037935,-0.000236169552 L22.3037935,-0.000236169552 Z" id="Fill-1" stroke="#9192AA" stroke-width="0.3" fill="#9192AA" mask="url(#mask-2)"></path>
            </g>
        </g>
    </g>
</svg>